<svg role="img" aria-label="Alternate Logo for East Tennessee State University (ETSU)" xmlns="http://www.w3.org/2000/svg" xmlns:xlink="http://www.w3.org/1999/xlink" viewBox="0 0 1018 397"><a xlink:href="https://www.etsu.edu"><title>Alternate Logo for East Tennessee State University (ETSU)</title><path fill="#FFC72C" d="M.178 390.682h1017.811v5.701H.178z"/><g fill="#FFF"><path d="M800.952 360.792c4.671 0 5.667-1.006 5.667-6.204v-12.872l-10.271-17.212c-2.4-4-3.67-4.8-8.34-4.8v-1.672h20.015v1.672c-2.539 0-4.335.196-4.335 1.864 0 .805.398 1.868 1.135 3.138l7.603 12.738 7.607-12.537c.733-1.269 1.466-2.405 1.466-3.267 0-1.605-1.466-1.935-4.273-1.935v-1.672h15.948v1.672c-4.805 0-6.137 1.198-8.542 5.064l-10.673 16.949v12.872c0 5.198 1.001 6.204 5.672 6.204v1.667h-18.678v-1.669h-.001zM732.392 360.792c4.666 0 5.667-1.006 5.667-6.204v-33.486h-2.601c-6.999 0-8.403 2.4-9.136 7.267h-1.935l.398-10.338h33.955l.335 10.338h-1.935c-.666-4.934-2.204-7.267-9.207-7.267h-2.534v33.486c0 5.198 1.001 6.204 5.672 6.204v1.667h-18.678v-1.667h-.001zM670.369 360.792c4.733 0 5.667-1.006 5.667-6.204v-28.681c0-5.207-.934-6.204-5.667-6.204v-1.672h18.673v1.672c-4.666 0-5.667.996-5.667 6.204v28.681c0 5.198 1.001 6.204 5.667 6.204v1.667h-18.673v-1.667zM630.159 328.908c-.537-3.602-2.266-8.34-9.342-8.34-5.404 0-8.403 2.735-8.403 6.204 0 6.534 11.344 9.6 16.345 13.476 3.272 2.534 5.605 5.466 5.605 10.008 0 9.404-7.272 12.872-17.414 12.872-5.27 0-9.605-1.202-11.876-1.801l-.398-11.009h1.935c.8 3.401 2.333 9.605 11.071 9.605 5.806 0 9.073-3.133 9.073-7.2 0-6.539-7.804-8.944-13.94-12.877-4.005-2.601-7.272-5.806-7.272-11.138 0-7.205 5.538-11.344 15.272-11.344 4.474 0 8.877.872 10.874 1.207l.402 10.338h-1.932v-.001zM535.387 360.792c4.733 0 5.667-1.006 5.667-6.204v-28.681c0-5.207-.934-6.204-5.667-6.204v-1.667h17.208c7.938 0 17.073 2.328 17.073 11.2 0 8.475-4.733 10.41-10.07 11.541l7.938 14.079c2.4 4.206 3.406 5.935 6.875 5.935v1.667h-10.209l-11.742-20.676h-4.067v12.805c0 5.198.934 6.204 5.667 6.204v1.667h-18.674v-1.666h.001zm13.006-22.08h4.067c6.007 0 9.605-2.534 9.605-8.604 0-7.143-4.134-9.006-9.471-9.006-3.799 0-4.201 1.001-4.201 4.805v12.805zM466.96 360.792c4.671 0 5.672-1.006 5.672-6.204v-28.681c0-5.207-1.001-6.204-5.672-6.204v-1.672h31.416l.402 9.677h-1.931c-.268-3.603-1.135-6.606-8.609-6.606h-4.268c-3.267 0-4.005 1.068-4.005 4.805v11.804h8.743c4.331 0 5.001-.934 5.001-5.332h1.796v13.802h-1.796c0-4-.671-5.404-5.001-5.404h-8.743v13.811c0 4.469.537 4.805 4.005 4.805h6.137c5.739 0 7.603-2.405 7.804-6.606h1.935l-.398 9.672H466.96v-1.667zM399.007 326.17c-1.935-5.399-2.735-6.467-7.742-6.467v-1.667h18.947v1.667c-3.2 0-4.733.532-4.733 2.467 0 .733.196 1.6.795 3.334l10.074 28.686h.134l10.673-28.753c.599-1.667.862-2.534.862-3.267 0-1.734-1.399-2.467-5.466-2.467v-1.667h16.609v1.667c-4.604 0-5.801 1.068-7.401 5.466l-13.945 37.289h-5.801l-13.006-36.288zM340.849 360.792c4.738 0 5.667-1.006 5.667-6.204v-28.681c0-5.207-.929-6.204-5.667-6.204v-1.672h18.678v1.672c-4.671 0-5.672.996-5.672 6.204v28.681c0 5.198 1.001 6.204 5.672 6.204v1.667h-18.678v-1.667zM264.021 360.792c4.671 0 5.667-1.006 5.667-6.204v-28.681c0-5.207-.996-6.204-5.667-6.204v-1.672h13.073l20.882 35.824h.134v-27.948c0-5.207-1.006-6.204-5.672-6.204v-1.672h15.541v1.672c-4.805 0-5.672.996-5.672 6.204v36.552h-6.333l-21.945-37.692h-.134v29.821c0 5.198.934 6.204 5.667 6.204v1.667h-15.54v-1.667h-.001zM227.215 348.183c0 7.54-2.333 14.942-16.072 14.942-11.612 0-16.015-5.203-16.015-14.942v-22.276c0-5.207-1.001-6.204-5.672-6.204v-1.667h18.683v1.667c-4.671 0-5.672.996-5.672 6.204v22.276c0 6.673 1.202 11.876 9.538 11.876 7.943 0 10.338-3.535 10.338-11.876v-22.276c0-5.207-.996-6.204-5.667-6.204v-1.667h16.211v1.667c-4.666 0-5.672.996-5.672 6.204v22.276zM974.811 288.11c4.92 0 7.919-.637 7.919-7.464v-42.051c0-6.831-2.999-7.468-7.919-7.468v-1.82h41.237l.632 11.109h-2.271c-1.092-5.557-4.096-7.555-10.558-7.555h-8.014c-4.733 0-5.006.996-5.006 7.646v15.924h11.742c6.098 0 8.288-1.36 8.288-7.646h1.911v18.846h-1.911c0-5.097-2.189-7.646-8.288-7.646h-11.742v18.75c0 7.1.46 7.646 5.006 7.646h8.743c7.008 0 9.83-2.184 11.191-8.47h2.28l-.637 12.019h-42.602v-1.82h-.001zM931.93 288.11c5.466 0 8.742-.637 8.742-7.464V232.86h-5.552c-9.284 0-10.654 3.732-11.564 8.824h-2.276l.642-12.379h45.601l.637 12.379h-2.276c-.546-5.73-3.277-8.824-12.197-8.824h-4.915v47.786c0 6.826 3.277 7.464 8.733 7.464v1.82h-25.577v-1.82h.002zM862.204 288.109c7.1 0 8.283-3.095 10.922-10.103l18.841-49.606h5.102l18.932 50.334c2.18 5.739 4.546 9.375 10.463 9.375v1.82h-23.66v-1.82c2.822 0 6.458-.632 6.458-3.004 0-1.183-.455-2.822-.819-3.823l-4.278-11.468h-22.841l-3.919 10.831c-.546 1.638-1.092 3.095-1.092 4.278 0 2.64 2.913 3.186 6.462 3.186v1.82h-20.571v-1.82zm20.388-21.845h20.302l-10.103-27.766-10.199 27.766zM830.338 288.11c5.466 0 8.743-.637 8.743-7.464V232.86h-5.552c-9.289 0-10.654 3.732-11.564 8.824h-2.276l.637-12.379h45.606l.637 12.379h-2.276c-.546-5.73-3.277-8.824-12.197-8.824h-4.92v47.786c0 6.826 3.277 7.464 8.738 7.464v1.82h-25.577v-1.82h.001zM809.247 239.332c-.872-5.131-4.752-11.143-15.119-11.143-6.496 0-12.216 4.168-12.216 10.563 0 8.628 11.536 11.435 19.967 16.379 7.66 4.465 12.796 8.436 12.796 17.648 0 12.307-10.664 18.123-23.943 18.123-6.592 0-14.247-1.456-16.671-1.844l-.68-13.663h2.424c.781 5.131 5.337 11.143 15.703 11.143 8.532 0 14.055-5.523 14.055-12.211 0-10.472-16.091-13.667-25.102-20.547-4.264-3.296-6.304-6.788-6.304-12.992 0-11.631 9.595-16.384 21.811-16.384 6.496 0 10.664.776 15.023 1.648l.68 13.279h-2.424v.001zM681.408 288.11c4.92 0 7.919-.637 7.919-7.464v-42.051c0-6.831-2.999-7.468-7.919-7.468v-1.82h41.237l.637 11.109h-2.276c-1.092-5.557-4.096-7.555-10.558-7.555h-8.01c-4.738 0-5.006.996-5.006 7.646v15.924h11.742c6.098 0 8.283-1.36 8.283-7.646h1.911v18.846h-1.911c0-5.097-2.185-7.646-8.283-7.646h-11.742v18.75c0 7.1.455 7.646 5.006 7.646h8.738c7.008 0 9.83-2.184 11.195-8.47h2.275l-.637 12.019h-42.602v-1.82h.001zM629.976 288.11c4.92 0 7.919-.637 7.919-7.464v-42.051c0-6.831-2.999-7.468-7.919-7.468v-1.82h41.237l.637 11.109h-2.276c-1.092-5.557-4.096-7.555-10.558-7.555h-8.01c-4.738 0-5.006.996-5.006 7.646v15.924h11.742c6.098 0 8.283-1.36 8.283-7.646h1.911v18.846h-1.911c0-5.097-2.185-7.646-8.283-7.646H646v18.75c0 7.1.455 7.646 5.006 7.646h8.738c7.008 0 9.83-2.184 11.195-8.47h2.275l-.637 12.019h-42.602v-1.82h.001zM619.687 242.415c-.819-4.824-4.46-10.467-14.204-10.467-6.098 0-11.468 3.919-11.468 9.921 0 8.101 10.831 10.745 18.75 15.382 7.191 4.192 12.019 7.923 12.019 16.566 0 11.564-10.017 17.025-22.487 17.025-6.19 0-13.38-1.365-15.656-1.729l-.637-12.839h2.275c.728 4.824 5.006 10.472 14.745 10.472 8.01 0 13.198-5.188 13.198-11.469 0-9.835-15.109-12.834-23.574-19.301-4.005-3.095-5.916-6.367-5.916-12.197 0-10.918 9.011-15.382 20.48-15.382 6.103 0 10.012.733 14.113 1.547l.632 12.47h-2.27v.001zM573.987 242.415c-.819-4.824-4.46-10.467-14.204-10.467-6.094 0-11.468 3.919-11.468 9.921 0 8.101 10.836 10.745 18.755 15.382 7.19 4.192 12.015 7.923 12.015 16.566 0 11.564-10.012 17.025-22.482 17.025-6.189 0-13.385-1.365-15.66-1.729l-.632-12.839h2.271c.733 4.824 5.011 10.472 14.75 10.472 8.005 0 13.198-5.188 13.198-11.469 0-9.835-15.109-12.834-23.579-19.301-4.005-3.095-5.912-6.367-5.912-12.197 0-10.918 9.006-15.382 20.475-15.382 6.103 0 10.012.733 14.113 1.547l.637 12.47h-2.277v.001zM489.147 288.11c4.915 0 7.919-.637 7.919-7.464v-42.051c0-6.831-3.004-7.468-7.919-7.468v-1.82h41.237l.632 11.109h-2.271c-1.092-5.557-4.096-7.555-10.558-7.555h-8.015c-4.733 0-5.001.996-5.001 7.646v15.924h11.742c6.094 0 8.278-1.36 8.278-7.646h1.911v18.846h-1.911c0-5.097-2.184-7.646-8.278-7.646h-11.742v18.75c0 7.1.455 7.646 5.001 7.646h8.743c7.008 0 9.83-2.184 11.191-8.47h2.28l-.637 12.019h-42.602v-1.82zM424.423 288.11c4.915 0 7.919-.637 7.919-7.464v-42.051c0-6.831-3.004-7.468-7.919-7.468v-1.82h16.566l28.039 48.883h.182v-39.594c0-6.831-3.009-7.468-7.924-7.468v-1.82h21.031v1.82c-5.006 0-7.924.637-7.924 7.468v51.335h-6.731l-29.95-52.25h-.182v42.966c0 6.826 2.917 7.464 7.919 7.464v1.82h-21.026v-1.821zM360.428 288.11c4.915 0 7.919-.637 7.919-7.464v-42.051c0-6.831-3.004-7.468-7.919-7.468v-1.82h16.566l28.039 48.883h.182v-39.594c0-6.831-3.009-7.468-7.924-7.468v-1.82h21.031v1.82c-5.006 0-7.924.637-7.924 7.468v51.335h-6.731l-29.95-52.25h-.182v42.966c0 6.826 2.917 7.464 7.919 7.464v1.82h-21.026v-1.821zM309.628 288.11c4.915 0 7.919-.637 7.919-7.464v-42.051c0-6.831-3.004-7.468-7.919-7.468v-1.82h41.237l.637 11.109h-2.276c-1.092-5.557-4.096-7.555-10.558-7.555h-8.01c-4.738 0-5.006.996-5.006 7.646v15.924h11.742c6.094 0 8.283-1.36 8.283-7.646h1.911v18.846h-1.911c0-5.097-2.189-7.646-8.283-7.646h-11.742v18.75c0 7.1.455 7.646 5.006 7.646h8.738c7.008 0 9.83-2.184 11.191-8.47h2.28l-.637 12.019h-42.602v-1.82zM263.602 287.992c5.816 0 9.303-.675 9.303-7.947V229.16h-5.912c-9.888 0-11.339 3.971-12.312 9.399h-2.424l.685-13.183h48.557l.68 13.183h-2.429c-.575-6.108-3.483-9.399-12.982-9.399h-5.236v50.885c0 7.272 3.487 7.947 9.303 7.947v1.94h-27.234v-1.94h.001zM177.691 288.11c5.461 0 8.738-.637 8.738-7.464V232.86h-5.547c-9.289 0-10.654 3.732-11.564 8.824h-2.276l.632-12.379h45.611l.637 12.379h-2.276c-.551-5.73-3.281-8.824-12.197-8.824h-4.92v47.786c0 6.826 3.277 7.464 8.738 7.464v1.82H177.69v-1.82h.001zM156.205 242.415c-.819-4.824-4.465-10.467-14.204-10.467-6.098 0-11.468 3.919-11.468 9.921 0 8.101 10.831 10.745 18.75 15.382 7.195 4.192 12.019 7.923 12.019 16.566 0 11.564-10.017 17.025-22.482 17.025-6.189 0-13.38-1.365-15.66-1.729l-.637-12.839h2.275c.733 4.824 5.006 10.472 14.745 10.472 8.015 0 13.203-5.188 13.203-11.469 0-9.835-15.114-12.834-23.579-19.301-4.005-3.095-5.912-6.367-5.912-12.197 0-10.918 9.006-15.382 20.475-15.382 6.103 0 10.017.733 14.113 1.547l.637 12.47h-2.275v.001zM53.068 288.109c7.095 0 8.283-3.095 10.922-10.103L82.831 228.4h5.097l18.932 50.334c2.189 5.739 4.556 9.375 10.472 9.375v1.82h-23.67v-1.82c2.822 0 6.462-.632 6.462-3.004 0-1.183-.45-2.822-.819-3.823l-4.278-11.468H72.181l-3.914 10.831c-.546 1.638-1.092 3.095-1.092 4.278 0 2.64 2.913 3.186 6.462 3.186v1.82H53.066v-1.82h.002zm20.389-21.845h20.302l-10.108-27.766-10.194 27.766zM.972 287.992c5.231 0 8.431-.675 8.431-7.947v-44.782c0-7.267-3.2-7.943-8.431-7.943v-1.945h43.91l.675 11.828h-2.424c-1.159-5.912-4.359-8.043-11.243-8.043h-8.527c-5.04 0-5.332 1.063-5.332 8.139v16.963h12.503c6.496 0 8.819-1.452 8.819-8.139h2.036v20.063h-2.036c0-5.432-2.323-8.144-8.819-8.144H18.031v19.967c0 7.559.484 8.144 5.332 8.144h9.303c7.464 0 10.467-2.328 11.924-9.016h2.424l-.68 12.796H.972v-1.941z"/></g><path fill="#FFC72C" d="M520.365 94.54h-51.958l4.585-10.539h7.1l-.005-2.084h54.617l-.752 2.304a33.645 33.645 0 0 0-4.139 1.998c-4.14 2.357-7.422 5.342-9.448 8.321zm-40.236-35.886v19.699h23.488V52.834l27.191.005c9.672 0 13.754 6.549 17.615 14.558h8.862l-9.413-27.929c-2.985 2.084-6.544 2.232-9.739 2.232l-66.368.014-3.008 8.091c2.84.686 11.3 2.856 11.372 8.849zm50.162 64.678h-26.674V98.11h-23.522l.034 19.574c-.091 4.541-6.208 8.604-11.267 9.021l2.941 7.837 65.262.005c7.286 0 12.594 2.731 12.594 2.731l9.413-27.929h-8.843c-2.755 5.594-8.508 13.614-19.938 13.983zM599.064 8.325v80.917c0 47.417-38.454 87.408-85.458 108.079-47.005-20.671-85.449-60.663-85.449-108.079V8.325h170.907zm-7.023 80.917V15.415H435.443v73.827c0 66.881 78.301 100.448 78.301 100.448s78.297-33.567 78.297-100.448z"/><path fill="#041E42" d="M513.746 189.69s78.292-33.567 78.292-100.448V15.415H435.445v73.827c0 66.881 78.301 100.448 78.301 100.448zm35.91-52.413s-5.308-2.731-12.594-2.731l-65.257-.005-2.946-7.837c5.064-.417 11.181-4.479 11.267-9.021l-.029-19.574h23.517v25.222h26.678c11.43-.369 17.179-8.388 19.938-13.984h8.843l-9.417 27.93zM538.13 41.701c3.2 0 6.755-.149 9.739-2.232l9.418 27.929h-8.863c-3.866-8.01-7.947-14.558-17.615-14.558l-27.196-.005v25.519h-23.488V58.655c-.072-5.993-8.527-8.163-11.373-8.848l3.015-8.092 66.363-.014zm-58.037 42.3l-.005-2.084h54.617l-.752 2.304a33.645 33.645 0 0 0-4.139 1.998c-4.139 2.357-7.425 5.341-9.447 8.321l-51.963-.005 4.589-10.534h7.1zM420.47.636v88.606c0 80.467 93.138 116.453 93.138 116.453s93.138-35.986 93.138-116.453V.636H420.47zm93.137 196.685c-47.005-20.671-85.454-60.663-85.454-108.079V8.325h170.908l-.001 80.917c.001 47.417-38.453 87.408-85.453 108.079z"/><path fill="#FFC72C" d="M451.102 197.118a192.96 192.96 0 0 1-6.515-5.586H.178v5.701h451.077l-.153-.115zm131.558-5.583a186.976 186.976 0 0 1-6.678 5.696h442.008v-5.696H582.66z"/><path fill="none" d="M0 0h290.7v30.6H0z"/></a></svg>